<svg id="Layer_1" xmlns="http://www.w3.org/2000/svg" viewBox="1019 750.8 476.8 100"><style>.st0{fill:#757575;}</style><path class="st0" d="M1071.7 814l-39.5-63.2h-10.9c-2.2 0-3 1.5-1.9 3.4l26.5 43.3.1.2 18 28.7 7.7-12.4zM1077.8 804.2c1.1-1.8 1.1-4.9 0-6.7l-26.8-43.3c-1.1-1.8-3.9-3.4-6-3.4h-11l38.6 61.8 5.2-8.4zM1055.4 815.4l-22.1 35.4h11.8c2.2 0 4.9-1.5 6-3.4l10.7-17.3c0-.1.1-.2.3-.5l1.1-1.8-7.8-12.4zM1046 804.2l-26.5 43.3c-1.1 1.9-.3 3.4 1.9 3.4h10.1l23-36.8-7.7-12.4c-.1.9-.4 1.8-.8 2.5z"/><g><path class="st0" d="M1112.4 799.2h15.5v19.3c-4.2 1.4-8.8 2.2-13.8 2.2-5.5 0-9.8-1.6-12.8-4.8-3-3.2-4.5-7.8-4.5-13.7 0-5.8 1.6-10.3 4.9-13.5 3.3-3.2 7.9-4.8 13.9-4.8 2.3 0 4.4.2 6.4.6s3.7 1 5.2 1.6l-3.1 7.6c-2.6-1.3-5.4-1.9-8.5-1.9-2.8 0-5 .9-6.6 2.8-1.5 1.8-2.3 4.5-2.3 7.9 0 3.3.7 5.9 2.1 7.7 1.4 1.8 3.4 2.6 6 2.6 1.4 0 2.8-.1 4-.4v-5.6h-6.4v-7.6zM1162.9 801.5c0 6-1.6 10.6-4.9 13.8-3.3 3.2-7.9 4.9-13.9 4.9h-11.6v-35.8h12.4c5.7 0 10.2 1.5 13.3 4.4 3.1 2.9 4.7 7.1 4.7 12.7zm-10.1.3c0-3.3-.6-5.7-1.9-7.3-1.3-1.6-3.3-2.4-5.9-2.4h-2.8v20.1h2.2c2.9 0 5.1-.9 6.5-2.6s1.9-4.3 1.9-7.8zM1180.9 799.2h15.5v19.3c-4.2 1.4-8.8 2.2-13.8 2.2-5.5 0-9.8-1.6-12.8-4.8-3-3.2-4.5-7.8-4.5-13.7 0-5.8 1.7-10.3 5-13.5 3.3-3.2 7.9-4.8 13.9-4.8 2.3 0 4.4.2 6.4.6s3.7 1 5.2 1.6l-3.1 7.6c-2.6-1.3-5.4-1.9-8.5-1.9-2.8 0-5 .9-6.6 2.8-1.5 1.8-2.3 4.5-2.3 7.9 0 3.3.7 5.9 2.1 7.7 1.4 1.8 3.4 2.6 6 2.6 1.4 0 2.8-.1 4-.4v-5.6h-6.4v-7.6zM1243 810.4c0 3.2-1.2 5.7-3.5 7.5-2.3 1.8-5.5 2.7-9.5 2.7-4.1 0-7.4-.6-9.9-1.9v-5.5c1.6.8 3.4 1.4 5.2 1.8 1.8.4 3.5.7 5.1.7 2.3 0 4-.4 5.1-1.3s1.7-2.1 1.7-3.6c0-1.3-.5-2.5-1.5-3.4-1-.9-3.1-2-6.3-3.3-3.3-1.3-5.6-2.8-6.9-4.5-1.3-1.7-2-3.7-2-6.1 0-3 1.1-5.3 3.2-7.1s5-2.6 8.6-2.6c3.4 0 6.8.8 10.2 2.3l-1.9 4.8c-3.2-1.3-6-2-8.5-2-1.9 0-3.3.4-4.3 1.2-1 .8-1.5 1.9-1.5 3.3 0 .9.2 1.7.6 2.4s1 1.3 1.9 1.9c.9.6 2.5 1.4 4.9 2.3 2.6 1.1 4.6 2.1 5.8 3.1 1.2.9 2.1 2 2.7 3.2.5 1.1.8 2.5.8 4.1zM1246.2 785.9c0-1 .3-1.8.8-2.4.6-.6 1.4-.8 2.4-.8s1.8.3 2.4.8.8 1.3.8 2.4c0 1-.3 1.8-.8 2.3s-1.4.8-2.4.8-1.8-.3-2.4-.8c-.5-.6-.8-1.3-.8-2.3zm6.1 34.3h-5.8v-27.1h5.8v27.1zM1263.5 820.2h-5.8V782h5.8v38.2zM1268.6 785.9c0-1 .3-1.8.8-2.4.6-.6 1.4-.8 2.4-.8s1.8.3 2.4.8.8 1.3.8 2.4c0 1-.3 1.8-.8 2.3s-1.4.8-2.4.8-1.8-.3-2.4-.8c-.5-.6-.8-1.3-.8-2.3zm6.1 34.3h-5.8v-27.1h5.8v27.1zM1291.1 820.6c-4.1 0-7.2-1.2-9.3-3.6-2.1-2.4-3.2-5.8-3.2-10.3 0-4.6 1.1-8.1 3.3-10.5s5.5-3.7 9.7-3.7c2.9 0 5.4.5 7.7 1.6l-1.7 4.6c-2.4-.9-4.4-1.4-6-1.4-4.7 0-7 3.1-7 9.3 0 3 .6 5.3 1.8 6.8s2.9 2.3 5.1 2.3c2.6 0 5-.6 7.3-1.9v5c-1 .6-2.1 1-3.3 1.3-1.3.4-2.7.5-4.4.5zM1326.3 806.6c0 4.4-1.1 7.9-3.4 10.4s-5.4 3.7-9.5 3.7c-2.5 0-4.8-.6-6.7-1.7-1.9-1.1-3.4-2.8-4.5-4.9-1-2.1-1.6-4.6-1.6-7.4 0-4.4 1.1-7.8 3.4-10.3 2.3-2.5 5.4-3.7 9.5-3.7 3.9 0 7 1.3 9.3 3.8 2.4 2.4 3.5 5.8 3.5 10.1zm-19.7 0c0 6.3 2.3 9.4 6.9 9.4 4.6 0 6.9-3.1 6.9-9.4 0-6.2-2.3-9.3-6.9-9.3-2.4 0-4.2.8-5.3 2.4-1 1.6-1.6 3.9-1.6 6.9zM1354 820.2h-5.8v-16.7c0-2.1-.4-3.7-1.3-4.7-.8-1-2.2-1.5-4-1.5-2.4 0-4.2.7-5.3 2.2-1.1 1.4-1.7 3.8-1.7 7.2v13.5h-5.8v-27.1h4.5l.8 3.6h.3c.8-1.3 2-2.3 3.5-3 1.5-.7 3.2-1.1 5-1.1 6.5 0 9.8 3.3 9.8 9.9v17.7zM1390.6 784.3h6.1l-12.5 35.8h-6.2l-12.5-35.8h6l7.5 22.3c.4 1.1.8 2.4 1.2 4.1.4 1.7.7 2.9.9 3.7.2-1.2.5-2.7 1-4.3.4-1.6.8-2.8 1.1-3.6l7.4-22.2zM1415 820.2l-1.2-3.8h-.2c-1.3 1.7-2.6 2.8-3.9 3.4s-3 .9-5.1.9c-2.7 0-4.7-.7-6.2-2.2-1.5-1.4-2.2-3.5-2.2-6.1 0-2.8 1-4.9 3.1-6.3 2.1-1.4 5.2-2.2 9.5-2.3l4.7-.1v-1.4c0-1.7-.4-3-1.2-3.9-.8-.9-2.1-1.3-3.8-1.3-1.4 0-2.7.2-4 .6-1.3.4-2.5.9-3.7 1.4l-1.9-4.1c1.5-.8 3.1-1.4 4.8-1.8s3.4-.6 4.9-.6c3.4 0 6 .8 7.8 2.3 1.8 1.5 2.6 3.9 2.6 7.1v18.3h-4zm-8.6-4c2.1 0 3.8-.6 5-1.8 1.3-1.2 1.9-2.8 1.9-4.9v-2.4l-3.5.1c-2.7.1-4.7.6-5.9 1.4s-1.8 2-1.8 3.7c0 1.2.4 2.1 1.1 2.8.7.8 1.8 1.1 3.2 1.1zM1430.1 820.2h-5.8V782h5.8v38.2zM1441.3 820.2h-5.8V782h5.8v38.2zM1458.7 820.6c-4.2 0-7.5-1.2-9.9-3.7-2.4-2.5-3.6-5.8-3.6-10.2 0-4.4 1.1-7.9 3.3-10.4 2.2-2.5 5.2-3.8 9.1-3.8 3.6 0 6.4 1.1 8.5 3.3 2.1 2.2 3.1 5.2 3.1 9v3.1h-18.1c.1 2.6.8 4.7 2.1 6.1 1.3 1.4 3.2 2.1 5.7 2.1 1.6 0 3.1-.2 4.5-.5s2.9-.8 4.4-1.5v4.7c-1.4.7-2.8 1.1-4.3 1.4-1.4.3-3 .4-4.8.4zm-1.1-23.7c-1.8 0-3.3.6-4.4 1.7-1.1 1.2-1.8 2.9-2 5.1h12.3c0-2.2-.6-3.9-1.6-5.1-1-1.1-2.5-1.7-4.3-1.7z"/><path class="st0" d="M1468.9 793.1h6.3l5.5 15.4c.8 2.2 1.4 4.2 1.7 6.2h.2c.1-.9.4-2 .8-3.3.4-1.3 2.5-7.4 6.2-18.3h6.2l-11.6 30.7c-2.1 5.6-5.6 8.5-10.5 8.5-1.3 0-2.5-.1-3.7-.4v-4.6c.9.2 1.9.3 3 .3 2.8 0 4.7-1.6 5.9-4.8l1-2.5-11-27.2z"/></g></svg>